<svg width="1200" height="700" viewBox="0 0 1200 700" xmlns="http://www.w3.org/2000/svg" role="img" aria-label="widgie settings mockup">
  <rect width="1200" height="700" fill="#eef2f7"/>
  <rect x="170" y="70" width="860" height="560" rx="18" fill="#ffffff" stroke="#d1d5db"/>
  <text x="200" y="118" fill="#111827" font-size="25" font-family="-apple-system, BlinkMacSystemFont, sans-serif">widgie Settings</text>

  <rect x="200" y="145" width="120" height="34" rx="8" fill="#e5e7eb"/>
  <rect x="326" y="145" width="80" height="34" rx="8" fill="#e5e7eb"/>
  <rect x="412" y="145" width="110" height="34" rx="8" fill="#e5e7eb"/>
  <rect x="528" y="145" width="80" height="34" rx="8" fill="#e5e7eb"/>
  <text x="228" y="167" fill="#111827" font-size="13" font-family="-apple-system, BlinkMacSystemFont, sans-serif">General</text>
  <text x="352" y="167" fill="#111827" font-size="13" font-family="-apple-system, BlinkMacSystemFont, sans-serif">AI</text>
  <text x="448" y="167" fill="#111827" font-size="13" font-family="-apple-system, BlinkMacSystemFont, sans-serif">Widgets</text>
  <text x="556" y="167" fill="#111827" font-size="13" font-family="-apple-system, BlinkMacSystemFont, sans-serif">Data</text>

  <text x="210" y="220" fill="#374151" font-size="16" font-family="-apple-system, BlinkMacSystemFont, sans-serif">Provider</text>
  <rect x="330" y="201" width="240" height="34" rx="8" fill="#f3f4f6"/>
  <text x="350" y="224" fill="#111827" font-size="14" font-family="-apple-system, BlinkMacSystemFont, sans-serif">OpenAI / Claude</text>

  <text x="210" y="274" fill="#374151" font-size="16" font-family="-apple-system, BlinkMacSystemFont, sans-serif">Enable web discovery</text>
  <rect x="470" y="255" width="54" height="30" rx="15" fill="#22c55e"/>
  <circle cx="502" cy="270" r="12" fill="#ffffff"/>

  <text x="210" y="334" fill="#374151" font-size="16" font-family="-apple-system, BlinkMacSystemFont, sans-serif">Global Hotkey</text>
  <rect x="330" y="315" width="200" height="34" rx="8" fill="#f3f4f6"/>
  <text x="350" y="338" fill="#111827" font-size="14" font-family="-apple-system, BlinkMacSystemFont, sans-serif">Cmd+Shift+W</text>

  <text x="210" y="394" fill="#374151" font-size="16" font-family="-apple-system, BlinkMacSystemFont, sans-serif">Default Location</text>
  <rect x="330" y="375" width="280" height="34" rx="8" fill="#f3f4f6"/>
  <text x="350" y="398" fill="#111827" font-size="14" font-family="-apple-system, BlinkMacSystemFont, sans-serif">Seattle, WA</text>

  <text x="200" y="580" fill="#6b7280" font-size="13" font-family="-apple-system, BlinkMacSystemFont, sans-serif">API keys are stored in Keychain. Settings apply immediately.</text>
</svg>
